<?xml version="1.0" encoding="UTF-8" standalone="no"?>
<!DOCTYPE svg PUBLIC "-//W3C//DTD SVG 1.1//EN" "http://www.w3.org/Graphics/SVG/1.1/DTD/svg11.dtd">
<svg width="100%" height="100%" viewBox="0 0 133 29" version="1.1" xmlns="http://www.w3.org/2000/svg" xmlns:xlink="http://www.w3.org/1999/xlink" xml:space="preserve" xmlns:serif="http://www.serif.com/" style="fill-rule:evenodd;clip-rule:evenodd;stroke-linejoin:round;stroke-miterlimit:2;">
    <g id="Artboard1" transform="matrix(1,0,0,1,-110.217,-202.075)">
        <rect x="110.217" y="202.075" width="132.243" height="28.757" style="fill:none;"/>
        <g transform="matrix(0.216304,0,0,0.216304,90.9775,162.059)">
            <g transform="matrix(1.56895,0,0,1.56895,-1306.24,-1841.79)">
                <path d="M963.869,1305.57L963.869,1362.15L907.284,1362.15L907.284,1305.57L963.869,1305.57ZM935.613,1346.71C932.651,1346.71 930.56,1345.97 929.339,1344.49C928.671,1343.68 928.224,1342.45 927.996,1340.8L920.818,1340.8C920.818,1344.55 922.161,1347.49 924.847,1349.63C927.532,1351.77 931.219,1352.84 935.906,1352.84C940.496,1352.84 944.048,1351.75 946.563,1349.58C949.078,1347.41 950.335,1344.68 950.335,1341.39C950.335,1338.18 949.261,1335.73 947.112,1334.04C945.729,1332.95 943.678,1332.08 940.96,1331.43L934.759,1329.94C932.366,1329.37 930.804,1328.87 930.071,1328.45C928.932,1327.82 928.362,1326.86 928.362,1325.57C928.362,1324.17 928.94,1323.08 930.096,1322.3C931.251,1321.52 932.797,1321.13 934.734,1321.13C936.476,1321.13 937.933,1321.43 939.104,1322.03C940.862,1322.94 941.806,1324.48 941.936,1326.64L949.163,1326.64C949.033,1322.82 947.629,1319.9 944.952,1317.89C942.274,1315.88 939.039,1314.88 935.247,1314.88C930.706,1314.88 927.264,1315.94 924.92,1318.07C922.576,1320.21 921.404,1322.88 921.404,1326.11C921.404,1329.64 922.617,1332.24 925.042,1333.89C926.474,1334.89 929.062,1335.81 932.806,1336.65L936.614,1337.51C938.844,1338 940.48,1338.56 941.521,1339.19C942.563,1339.84 943.084,1340.76 943.084,1341.95C943.084,1343.99 942.034,1345.38 939.935,1346.13C938.828,1346.52 937.387,1346.71 935.613,1346.71Z" style="fill:rgb(132,218,255);"/>
            </g>
            <g transform="matrix(1.56895,0,0,1.56895,-1304.23,-1790.48)">
                <text x="977.569px" y="1319.61px" style="font-family:'Helvetica-Bold', 'Helvetica';font-weight:700;font-size:50px;fill:rgb(132,218,255);">Simple</text>
                <text x="1148.91px" y="1319.61px" style="font-family:'Helvetica-Bold', 'Helvetica';font-weight:700;font-size:50px;fill:rgb(132,218,255);">CRM</text>
            </g>
        </g>
    </g>
</svg>
